<svg width="512" height="512" viewBox="0 0 512 512" fill="none" xmlns="http://www.w3.org/2000/svg">
  <rect width="512" height="512" rx="112" fill="#0F172A"/>
  <path d="M112 164C112 135.281 135.281 112 164 112H348C376.719 112 400 135.281 400 164V348C400 376.719 376.719 400 348 400H164C135.281 400 112 376.719 112 348V164Z" fill="#111827"/>
  <path d="M182 196H250C281.48 196 307 221.52 307 253C307 284.48 281.48 310 250 310H220V356H182V196ZM220 272H248C258.493 272 267 263.493 267 253C267 242.507 258.493 234 248 234H220V272Z" fill="#F8FAFC"/>
  <path d="M323.635 196L342.821 224.379L375 229.259L354.023 250.64L358.934 282.741L330.182 269.027L301.43 282.741L306.341 250.64L285.364 229.259L317.543 224.379L336.729 196H323.635Z" fill="#22C55E"/>
</svg>
